<?xml version="1.0" encoding="UTF-8" standalone="no"?>
<svg width="36px" height="35px" viewBox="0 0 36 35" version="1.1" xmlns="http://www.w3.org/2000/svg" xmlns:xlink="http://www.w3.org/1999/xlink" xmlns:sketch="http://www.bohemiancoding.com/sketch/ns">
    <!-- Generator: Sketch 3.2.2 (9983) - http://www.bohemiancoding.com/sketch -->
    <title>google-plus-circle-icon</title>
    <desc>Created with Sketch.</desc>
    <defs></defs>
    <g id="Page-1" stroke="none" stroke-width="1" fill="none" fill-rule="evenodd" sketch:type="MSPage">
        <path d="M19.3570971,23.8423908 C19.3570971,25.5624029 17.9602403,26.906165 15.0686626,26.906165 C12.8068301,26.906165 11.1734684,25.4743932 11.1734684,23.754466 C11.1734684,22.0690291 13.0901432,20.614915 15.3518908,20.6398058 C17.8613568,20.6398908 19.3570971,22.2027427 19.3570971,23.8423908 L19.3570971,23.8423908 Z M35.417,17.5 C35.417,27.1650121 27.5820121,35 17.917,35 C8.25198786,35 0.417,27.1650121 0.417,17.5 C0.417,7.83498786 8.25198786,0 17.917,0 C27.5820121,0 35.417,7.83498786 35.417,17.5 L35.417,17.5 Z M21.3053738,23.642415 C21.3053738,22.0545874 20.7124976,21.0171602 18.9185777,19.6730583 C17.0991723,18.3462015 16.6546214,17.5965898 18.391199,16.253932 C19.3697549,15.4973544 20.055483,14.4888107 20.055483,13.2435922 C20.055483,11.8870024 19.50075,10.6562257 18.4576311,10.0585922 L19.9361262,10.0585922 L21.194767,8.73751214 L15.5622306,8.73751214 C12.0460898,8.73751214 10.322,10.8450728 10.322,13.1633131 C10.322,15.5325243 11.9472913,17.398483 15.1210777,17.398483 C14.6290388,18.3918204 14.8266359,19.3093811 15.6317209,19.9654612 C10.2112233,19.9654612 9.05129612,22.343932 9.05129612,24.176165 C9.05129612,26.5501335 11.7801917,27.961517 15.0525218,27.961517 C19.5268301,27.961432 21.3053738,25.590267 21.3053738,23.642415 L21.3053738,23.642415 Z M28.6513811,11.5958738 L26.052801,11.5958738 L26.052801,8.99737864 L24.7536383,8.99737864 L24.7536383,11.5958738 L22.1550583,11.5958738 L22.1550583,12.8951214 L24.7536383,12.8951214 L24.7536383,15.4936165 L26.052801,15.4936165 L26.052801,12.8951214 L28.6513811,12.8951214 L28.6513811,11.5958738 L28.6513811,11.5958738 Z M17.7922913,13.3283738 C17.5303859,11.3349029 16.2316481,9.69933252 14.7141602,9.65371359 C13.1961626,9.60851942 12.1780194,11.1341626 12.4402646,13.1281432 C12.7023398,15.121699 14.1449854,16.5142233 15.6632379,16.5600121 C17.1807257,16.6052063 18.0541117,15.3220995 17.7922913,13.3283738 L17.7922913,13.3283738 Z" id="google-plus-circle-icon" fill="#EDDA5B" sketch:type="MSShapeGroup"></path>
    </g>
</svg>