<?xml version="1.0" encoding="UTF-8" standalone="no"?>
<svg width="590px" height="590px" viewBox="0 0 590 590" version="1.1" xmlns="http://www.w3.org/2000/svg" xmlns:xlink="http://www.w3.org/1999/xlink" xmlns:sketch="http://www.bohemiancoding.com/sketch/ns">
    <!-- Generator: Sketch 3.2.2 (9983) - http://www.bohemiancoding.com/sketch -->
    <title>Slice 1</title>
    <desc>Created with Sketch.</desc>
    <defs></defs>
    <g id="Page-1" stroke="none" stroke-width="1" fill="none" fill-rule="evenodd" sketch:type="MSPage">
        <g id="icon-twitter" sketch:type="MSLayerGroup">
            <g id="Layer_2" fill="#EDDA5B" sketch:type="MSShapeGroup">
                <circle id="Oval" cx="294.944" cy="294.781" r="294.5"></circle>
            </g>
            <g id="Icon" transform="translate(106.000000, 141.000000)" fill="#FFFFFF" sketch:type="MSShapeGroup">
                <path d="M377.773,36.634 C363.882,42.798 348.962,46.965 333.275,48.838 C349.285,39.251 361.55,24.059 367.341,5.978 C352.386,14.857 335.804,21.306 318.132,24.779 C304.007,9.723 283.866,0.323 261.581,0.323 C218.808,0.323 184.12,34.998 184.12,77.796 C184.12,83.86 184.802,89.776 186.116,95.456 C121.727,92.22 64.642,61.377 26.432,14.511 C19.76,25.957 15.941,39.265 15.941,53.464 C15.941,80.339 29.62,104.051 50.405,117.941 C37.706,117.545 25.762,114.059 15.308,108.255 L15.308,109.234 C15.308,146.774 42.009,178.076 77.453,185.195 C70.942,186.98 64.109,187.911 57.04,187.911 C52.042,187.911 47.193,187.439 42.456,186.547 C52.315,217.316 80.926,239.713 114.819,240.346 C88.304,261.131 54.894,273.52 18.607,273.52 C12.357,273.52 6.18,273.148 0.116,272.416 C34.407,294.404 75.122,307.24 118.875,307.24 C261.371,307.24 339.302,189.188 339.302,86.812 C339.302,83.451 339.228,80.115 339.066,76.791 C354.245,65.815 367.392,52.174 377.773,36.634 L377.773,36.634 Z" id="Shape"></path>
            </g>
        </g>
    </g>
</svg>