<svg xmlns="http://www.w3.org/2000/svg" viewBox="0 0 1730 1730" preserveAspectRatio="xMidYMid meet" fill="black">
  <defs>
    <clipPath id="a" clipPathUnits="userSpaceOnUse">
      <path d="M0 2000h2000V0H0z" />
    </clipPath>
  </defs>
  <g clipPath="url(#a)" transform="matrix(1.33333 0 0 -1.33333 -470 2195)">
    <path
      d="M1411.01 1031.797c0 31.913-19.147 50.075-56.457 50.075-36.823 0-56.95-18.162-56.95-50.075v-10.8h113.408z" />
    <path
      d="M716.762 1134.325h388.952v17.81c0 68.147 35.787 102.463 107.852 103.934h4.417c11.763 0 15.688-3.926 15.688-15.688v-21.57c0-11.768-3.925-15.687-15.688-15.687-41.18 0-55.399-13.732-55.399-50.989v-17.81h184.367a39.83 39.83 0 003.226-.142c1.473.031 2.874.142 4.376.142 74.513 0 113.247-42.16 113.247-101.479V995.8c0-14.218-7.358-21.078-22.06-21.078h-148.058v-11c0-24.938 12.362-40.824 34.876-46.57h306.67a650.481 650.481 0 015.285 82.85c0 355.954-288.558 644.513-644.513 644.513-309.887 0-568.655-218.715-630.455-510.189z" />
    <path
      d="M896.517 1081.873c-27.03-3.915-41.988-19.822-41.988-45.593v-72.558c0-29.413 20.1-46.571 55.89-46.571 35.786 0 56.376 17.158 56.376 46.57v72.559c0 25.77-15.322 41.678-42.45 45.593z" />
    <path
      d="M1354.307 865.676l-.006.014c-.246-.001-.48-.014-.726-.014-76.483 0-112.762 40.689-112.762 104.91v57.85c0 20.752 3.69 38.584 10.805 53.437h-89.034V880.87c0-11.276-3.432-15.195-15.195-15.195h-25.986c-11.764 0-15.69 3.919-15.69 15.195v201.002h-91.65c6.26-13.098 9.599-28.332 9.599-45.593v-72.558c0-61.281-40.69-98.046-113.244-98.046-72.07 0-112.758 36.765-112.758 98.046v72.558c0 17.26 3.34 32.495 9.588 45.593h-69.642L604.758 917.15h123.537c11.277 0 14.706-3.92 14.706-15.197V880.87c0-11.276-3.43-15.195-14.706-15.195H547.399c-11.277 0-15.2 3.919-15.2 15.195v21.083c0 6.374 1.963 11.278 5.394 15.197l131.869 165.7H360.77a650.665 650.665 0 01-5.285-82.85c0-355.956 288.559-644.514 644.514-644.514 309.887 0 568.655 218.714 630.454 510.189z" />
  </g>
</svg>