<?xml version="1.0" encoding="UTF-8" standalone="no"?>
<svg width="49px" height="49px" viewBox="0 0 49 49" version="1.1" xmlns="http://www.w3.org/2000/svg" xmlns:xlink="http://www.w3.org/1999/xlink" xmlns:sketch="http://www.bohemiancoding.com/sketch/ns">
    <!-- Generator: Sketch 3.2.2 (9983) - http://www.bohemiancoding.com/sketch -->
    <title>Slice 1</title>
    <desc>Created with Sketch.</desc>
    <defs></defs>
    <g id="Page-1" stroke="none" stroke-width="1" fill="none" fill-rule="evenodd" sketch:type="MSPage">
        <g id="rss" sketch:type="MSLayerGroup">
            <g id="Page-1" sketch:type="MSShapeGroup">
                <circle id="Oval-1" fill="#EEDB4F" cx="24.5" cy="24.5" r="24.5"></circle>
                <g id="rss" transform="translate(11.000000, 11.000000)" fill="#FFFFFF">
                    <g id="Page-1">
                        <g id="rss">
                            <path d="M0.917677419,0.5572 C0.917677419,0.5572 25.5540645,-0.696266667 27.496,26.1398667 L22.520129,26.1398667 C22.520129,26.1398667 23.492,6.5772 0.917677419,4.82066667 L0.917677419,0.5572 L0.917677419,0.5572 Z" id="Shape"></path>
                            <path d="M0.917677419,9.46213333 C0.917677419,9.46213333 15.3602581,8.95906667 18.1512258,26.1398667 L13.1762581,26.1398667 C13.1762581,26.1398667 12.5701935,15.9833333 0.917677419,13.7228 L0.917677419,9.46213333 L0.917677419,9.46213333 Z" id="Shape"></path>
                            <path d="M3.62193548,20.65 C5.36335484,20.65 6.77780645,22.1078667 6.77780645,23.9110667 C6.77780645,25.7105333 5.36335484,27.1712 3.62193548,27.1712 C1.87870968,27.1712 0.466064516,25.7114667 0.466064516,23.9110667 C0.466064516,22.1088 1.87870968,20.65 3.62193548,20.65 L3.62193548,20.65 L3.62193548,20.65 Z" id="Shape"></path>
                        </g>
                    </g>
                </g>
            </g>
        </g>
    </g>
</svg>